# xmcd CD database file
#
# Track frame offsets:
#	150
#	19267
#	36072
#	49642
#	55902
#	70607
#	91537
#	110330
#	130800
#	145525
#	161622
#
# Disc length: 2540 seconds
#
# Revision: 8
# Processed by: cddbd v1.5.2PL0 Copyright (c) Steve Scherf et al.
# Submitted via: CDex 1.70beta2
#
DISCID=8209ea0b
DTITLE=高橋ユキヒロ - 音楽殺人
DYEAR=1980
DGENRE=Pop
TTITLE0=SCHOOL OF THOUGHT
TTITLE1=MURDERED BY THE MUSIC
TTITLE2=KID-NAP, THE DREAMER
TTITLE3=I-KASU!
TTITLE4=RADIOACTIVIST
TTITLE5=NUMBER FROM A CALCULATED CONVERSATION
TTITLE6=BIJIN-KYOSHI AT THE SWIMMING SCHOOL
TTITLE7=BLUE COLOUR WORKER
TTITLE8=STOP IN THE NAME OF LOVE
TTITLE9=MIRRORMANIC
TTITLE10=THE CORE OF EDEN
EXTD=YEAR: 1980
EXTT0=
EXTT1=
EXTT2=
EXTT3=
EXTT4=
EXTT5=
EXTT6=
EXTT7=
EXTT8=
EXTT9=
EXTT10=
PLAYORDER=
